<svg width="10" height="10" viewBox="0 0 10 10" fill="none" xmlns="http://www.w3.org/2000/svg">
<path d="M8.95117 0.754639C9.01618 0.7417 9.08452 0.754944 9.13965 0.791748C9.19479 0.828523 9.23309 0.885931 9.24609 0.950928C9.25907 1.01583 9.24562 1.08331 9.20898 1.13843L4.20898 8.63843C4.18853 8.66906 4.16144 8.69463 4.12988 8.71362C4.09818 8.73264 4.06218 8.74514 4.02539 8.74878C3.98874 8.75236 3.95168 8.74749 3.91699 8.73511C3.88219 8.72266 3.85036 8.70264 3.82422 8.67651L0.836914 5.68921C0.792777 5.64184 0.768416 5.57913 0.769531 5.5144C0.770674 5.44964 0.796969 5.38736 0.842773 5.34155C0.888448 5.29598 0.950145 5.26957 1.01465 5.26831C1.07788 5.26719 1.13955 5.29058 1.18652 5.33276L3.96191 8.10815L4.2998 7.60034L8.79297 0.861084C8.82973 0.806108 8.88634 0.767651 8.95117 0.754639Z" fill="white" stroke="black"/>
</svg>
