<svg width="60" height="60" viewBox="0 0 60 60" fill="none" xmlns="http://www.w3.org/2000/svg">
<circle cx="30" cy="30" r="30" fill="#B8C63F"/>
<path d="M30.5016 12.25C39.4765 12.25 46.7516 19.5251 46.7516 28.5C46.7516 37.4749 39.4765 44.75 30.5016 44.75C27.6298 44.7549 24.8086 43.9949 22.3279 42.5481L14.2581 44.75L16.4551 36.677C15.0072 34.1955 14.2466 31.373 14.2516 28.5C14.2516 19.5251 21.5267 12.25 30.5016 12.25ZM24.9636 20.8625L24.6386 20.8755C24.4285 20.89 24.2232 20.9452 24.0341 21.038C23.8579 21.138 23.697 21.2627 23.5564 21.4085C23.3614 21.5921 23.2509 21.7514 23.1322 21.9057C22.5312 22.6872 22.2076 23.6466 22.2125 24.6325C22.2157 25.4287 22.4237 26.2039 22.7487 26.9286C23.4134 28.3944 24.507 29.9462 25.95 31.3844C26.2977 31.7305 26.639 32.0782 27.0062 32.4016C28.7993 33.9802 30.9359 35.1186 33.2462 35.7264L34.1692 35.8677C34.4699 35.884 34.7705 35.8612 35.0727 35.8466C35.5459 35.8217 36.0079 35.6936 36.4264 35.4712C36.639 35.3613 36.8466 35.242 37.0487 35.1137C37.0487 35.1137 37.1175 35.0672 37.2519 34.9675C37.4712 34.805 37.6061 34.6896 37.7881 34.4995C37.9246 34.3587 38.0384 34.1951 38.1294 34.0087C38.2561 33.7439 38.3829 33.2385 38.4349 32.8176C38.4739 32.4959 38.4625 32.3204 38.4576 32.2115C38.4511 32.0376 38.3065 31.8572 38.1489 31.7809L37.2031 31.3567C37.2031 31.3567 35.7894 30.7409 34.9249 30.3476C34.8344 30.3082 34.7374 30.2857 34.6389 30.281C34.5277 30.2694 34.4153 30.2818 34.3093 30.3174C34.2033 30.353 34.1062 30.411 34.0246 30.4874C34.0165 30.4841 33.9076 30.5767 32.7327 32.0002C32.6653 32.0909 32.5724 32.1593 32.4659 32.197C32.3594 32.2346 32.2441 32.2396 32.1347 32.2115C32.0288 32.1833 31.9251 32.1474 31.8244 32.1042C31.6229 32.0197 31.553 31.9872 31.4149 31.9287C30.4819 31.5223 29.6183 30.9724 28.8555 30.2989C28.6507 30.1201 28.4606 29.9251 28.2656 29.7366C27.6264 29.1243 27.0692 28.4317 26.6081 27.6761L26.5122 27.5217C26.4444 27.4174 26.3888 27.3056 26.3465 27.1886C26.2847 26.9497 26.4456 26.758 26.4456 26.758C26.4456 26.758 26.8405 26.3257 27.0241 26.0917C27.2029 25.8642 27.354 25.6432 27.4515 25.4856C27.6432 25.1769 27.7034 24.86 27.6026 24.6146C27.1476 23.5031 26.6774 22.3976 26.1921 21.298C26.0962 21.0802 25.8119 20.9242 25.5535 20.8934C25.4657 20.8825 25.378 20.8739 25.2902 20.8674C25.072 20.8549 24.8533 20.857 24.6354 20.8739L24.9636 20.8625Z" fill="white"/>
</svg>
