<svg width="60" height="60" viewBox="0 0 60 60" fill="none" xmlns="http://www.w3.org/2000/svg">
<circle cx="30" cy="30" r="30" fill="#52B8D2"/>
<path fill-rule="evenodd" clip-rule="evenodd" d="M41.1377 16.1988C41.5392 16.0297 41.9788 15.9714 42.4105 16.0299C42.8423 16.0884 43.2504 16.2616 43.5925 16.5314C43.9347 16.8011 44.1982 17.1577 44.3558 17.5639C44.5133 17.9701 44.5591 18.4111 44.4884 18.841L40.8029 41.1961C40.4454 43.3525 38.0794 44.5891 36.1018 43.515C34.4475 42.6164 31.9905 41.2319 29.7805 39.7873C28.6755 39.0641 25.2907 36.7485 25.7067 35.1008C26.0642 33.6919 31.7517 28.3976 35.0017 25.25C36.2773 24.0134 35.6956 23.3 34.1892 24.4375C30.4484 27.2618 24.4424 31.5566 22.4567 32.7656C20.7049 33.8316 19.7917 34.0136 18.6997 33.8316C16.7074 33.5001 14.8598 32.9866 13.3518 32.361C11.314 31.516 11.4132 28.7145 13.3502 27.8988L41.1377 16.1988Z" fill="white"/>
</svg>
